<mxfile host="app.diagrams.net" agent="Mozilla/5.0 (Macintosh; Intel Mac OS X 10_15_7) AppleWebKit/537.36 (KHTML, like Gecko) Chrome/134.0.0.0 Safari/537.36" version="26.2.14">
  <diagram name="第 1 页" id="IwctIAgDlKNDpbRzsZ4j">
    <mxGraphModel dx="1476" dy="829" grid="1" gridSize="10" guides="1" tooltips="1" connect="1" arrows="1" fold="1" page="1" pageScale="1" pageWidth="827" pageHeight="1169" math="0" shadow="0">
      <root>
        <mxCell id="0" />
        <mxCell id="1" parent="0" />
        <mxCell id="B3IvyqfEGe--kp_O45MT-63" style="edgeStyle=orthogonalEdgeStyle;rounded=0;orthogonalLoop=1;jettySize=auto;html=1;" edge="1" parent="1" source="B3IvyqfEGe--kp_O45MT-1">
          <mxGeometry relative="1" as="geometry">
            <mxPoint x="800" y="360" as="targetPoint" />
          </mxGeometry>
        </mxCell>
        <mxCell id="B3IvyqfEGe--kp_O45MT-74" style="edgeStyle=orthogonalEdgeStyle;rounded=0;orthogonalLoop=1;jettySize=auto;html=1;exitX=0;exitY=0.25;exitDx=0;exitDy=0;startArrow=open;startFill=0;endArrow=open;endFill=0;" edge="1" parent="1" source="B3IvyqfEGe--kp_O45MT-1">
          <mxGeometry relative="1" as="geometry">
            <mxPoint x="110" y="279.9047619047619" as="targetPoint" />
          </mxGeometry>
        </mxCell>
        <mxCell id="B3IvyqfEGe--kp_O45MT-93" value="配置寄存器信号" style="edgeLabel;html=1;align=center;verticalAlign=middle;resizable=0;points=[];" vertex="1" connectable="0" parent="B3IvyqfEGe--kp_O45MT-74">
          <mxGeometry x="0.074" y="-2" relative="1" as="geometry">
            <mxPoint x="9" y="-8" as="offset" />
          </mxGeometry>
        </mxCell>
        <mxCell id="B3IvyqfEGe--kp_O45MT-76" style="edgeStyle=orthogonalEdgeStyle;rounded=0;orthogonalLoop=1;jettySize=auto;html=1;exitX=0;exitY=0.75;exitDx=0;exitDy=0;startArrow=open;startFill=0;endArrow=open;endFill=0;" edge="1" parent="1" source="B3IvyqfEGe--kp_O45MT-1">
          <mxGeometry relative="1" as="geometry">
            <mxPoint x="110" y="439.9047619047618" as="targetPoint" />
          </mxGeometry>
        </mxCell>
        <mxCell id="B3IvyqfEGe--kp_O45MT-92" value="检查逻辑信号" style="edgeLabel;html=1;align=center;verticalAlign=middle;resizable=0;points=[];" vertex="1" connectable="0" parent="B3IvyqfEGe--kp_O45MT-76">
          <mxGeometry x="-0.0505" y="-3" relative="1" as="geometry">
            <mxPoint y="-7" as="offset" />
          </mxGeometry>
        </mxCell>
        <mxCell id="B3IvyqfEGe--kp_O45MT-1" value="&amp;nbsp; IOPMP" style="rounded=0;whiteSpace=wrap;html=1;align=left;verticalAlign=top;fillColor=#ffe6cc;strokeColor=#d79b00;" vertex="1" parent="1">
          <mxGeometry x="220" y="200" width="510" height="320" as="geometry" />
        </mxCell>
        <mxCell id="B3IvyqfEGe--kp_O45MT-9" value="" style="group" vertex="1" connectable="0" parent="1">
          <mxGeometry x="230" y="230" width="220" height="80" as="geometry" />
        </mxCell>
        <mxCell id="B3IvyqfEGe--kp_O45MT-2" value="HWCFG0" style="rounded=0;whiteSpace=wrap;html=1;fillColor=#dae8fc;strokeColor=#6c8ebf;" vertex="1" parent="B3IvyqfEGe--kp_O45MT-9">
          <mxGeometry x="110" width="110" height="20" as="geometry" />
        </mxCell>
        <mxCell id="B3IvyqfEGe--kp_O45MT-3" value="ERR_CFG" style="rounded=0;whiteSpace=wrap;html=1;fillColor=#dae8fc;strokeColor=#6c8ebf;" vertex="1" parent="B3IvyqfEGe--kp_O45MT-9">
          <mxGeometry x="110" y="20" width="110" height="20" as="geometry" />
        </mxCell>
        <mxCell id="B3IvyqfEGe--kp_O45MT-4" value="ERR_REQ_INFO" style="rounded=0;whiteSpace=wrap;html=1;fillColor=#dae8fc;strokeColor=#6c8ebf;" vertex="1" parent="B3IvyqfEGe--kp_O45MT-9">
          <mxGeometry x="110" y="40" width="110" height="20" as="geometry" />
        </mxCell>
        <mxCell id="B3IvyqfEGe--kp_O45MT-5" value="......" style="rounded=0;whiteSpace=wrap;html=1;fillColor=#dae8fc;strokeColor=#6c8ebf;" vertex="1" parent="B3IvyqfEGe--kp_O45MT-9">
          <mxGeometry x="110" y="60" width="110" height="20" as="geometry" />
        </mxCell>
        <mxCell id="B3IvyqfEGe--kp_O45MT-6" value="" style="shape=curlyBracket;whiteSpace=wrap;html=1;rounded=1;labelPosition=left;verticalLabelPosition=middle;align=right;verticalAlign=middle;size=0.5;" vertex="1" parent="B3IvyqfEGe--kp_O45MT-9">
          <mxGeometry x="90" width="10" height="80" as="geometry" />
        </mxCell>
        <mxCell id="B3IvyqfEGe--kp_O45MT-7" value="IOPMP&lt;div&gt;配置寄存器&lt;/div&gt;" style="text;html=1;align=center;verticalAlign=middle;resizable=0;points=[];autosize=1;strokeColor=none;fillColor=none;" vertex="1" parent="B3IvyqfEGe--kp_O45MT-9">
          <mxGeometry x="10" y="20" width="80" height="40" as="geometry" />
        </mxCell>
        <mxCell id="B3IvyqfEGe--kp_O45MT-57" value="" style="group" vertex="1" connectable="0" parent="1">
          <mxGeometry x="250" y="330" width="277.5" height="170" as="geometry" />
        </mxCell>
        <mxCell id="B3IvyqfEGe--kp_O45MT-41" value="Entries" style="rounded=0;whiteSpace=wrap;html=1;fillColor=#d5e8d4;strokeColor=#82b366;" vertex="1" parent="B3IvyqfEGe--kp_O45MT-57">
          <mxGeometry x="90" y="30" width="110" height="30" as="geometry" />
        </mxCell>
        <mxCell id="B3IvyqfEGe--kp_O45MT-42" value="Entries" style="rounded=0;whiteSpace=wrap;html=1;fillColor=#d5e8d4;strokeColor=#82b366;" vertex="1" parent="B3IvyqfEGe--kp_O45MT-57">
          <mxGeometry x="90" width="110" height="30" as="geometry" />
        </mxCell>
        <mxCell id="B3IvyqfEGe--kp_O45MT-43" value="......" style="rounded=0;whiteSpace=wrap;html=1;fillColor=#d5e8d4;strokeColor=#82b366;" vertex="1" parent="B3IvyqfEGe--kp_O45MT-57">
          <mxGeometry x="90" y="60" width="110" height="30" as="geometry" />
        </mxCell>
        <mxCell id="B3IvyqfEGe--kp_O45MT-44" value="Entries" style="rounded=0;whiteSpace=wrap;html=1;fillColor=#d5e8d4;strokeColor=#82b366;" vertex="1" parent="B3IvyqfEGe--kp_O45MT-57">
          <mxGeometry x="90" y="90" width="110" height="30" as="geometry" />
        </mxCell>
        <mxCell id="B3IvyqfEGe--kp_O45MT-55" style="edgeStyle=orthogonalEdgeStyle;rounded=0;orthogonalLoop=1;jettySize=auto;html=1;exitX=1;exitY=0.5;exitDx=0;exitDy=0;endArrow=none;startFill=1;startArrow=classic;" edge="1" parent="B3IvyqfEGe--kp_O45MT-57" source="B3IvyqfEGe--kp_O45MT-45">
          <mxGeometry relative="1" as="geometry">
            <mxPoint x="252" y="140" as="targetPoint" />
          </mxGeometry>
        </mxCell>
        <mxCell id="B3IvyqfEGe--kp_O45MT-45" value="MUX" style="shape=trapezoid;perimeter=trapezoidPerimeter;whiteSpace=wrap;html=1;fixedSize=1;rotation=90;fillColor=#e1d5e7;strokeColor=#9673a6;" vertex="1" parent="B3IvyqfEGe--kp_O45MT-57">
          <mxGeometry x="190" y="47.5" width="125" height="30" as="geometry" />
        </mxCell>
        <mxCell id="B3IvyqfEGe--kp_O45MT-46" style="edgeStyle=orthogonalEdgeStyle;rounded=0;orthogonalLoop=1;jettySize=auto;html=1;entryX=0.117;entryY=1.006;entryDx=0;entryDy=0;entryPerimeter=0;" edge="1" parent="B3IvyqfEGe--kp_O45MT-57" source="B3IvyqfEGe--kp_O45MT-42" target="B3IvyqfEGe--kp_O45MT-45">
          <mxGeometry relative="1" as="geometry" />
        </mxCell>
        <mxCell id="B3IvyqfEGe--kp_O45MT-48" style="edgeStyle=orthogonalEdgeStyle;rounded=0;orthogonalLoop=1;jettySize=auto;html=1;entryX=0.357;entryY=1.05;entryDx=0;entryDy=0;entryPerimeter=0;" edge="1" parent="B3IvyqfEGe--kp_O45MT-57" source="B3IvyqfEGe--kp_O45MT-41" target="B3IvyqfEGe--kp_O45MT-45">
          <mxGeometry relative="1" as="geometry" />
        </mxCell>
        <mxCell id="B3IvyqfEGe--kp_O45MT-50" style="edgeStyle=orthogonalEdgeStyle;rounded=0;orthogonalLoop=1;jettySize=auto;html=1;entryX=0.843;entryY=1.006;entryDx=0;entryDy=0;entryPerimeter=0;" edge="1" parent="B3IvyqfEGe--kp_O45MT-57" source="B3IvyqfEGe--kp_O45MT-44" target="B3IvyqfEGe--kp_O45MT-45">
          <mxGeometry relative="1" as="geometry" />
        </mxCell>
        <mxCell id="B3IvyqfEGe--kp_O45MT-51" value="" style="shape=curlyBracket;whiteSpace=wrap;html=1;rounded=1;labelPosition=left;verticalLabelPosition=middle;align=right;verticalAlign=middle;size=0.5;" vertex="1" parent="B3IvyqfEGe--kp_O45MT-57">
          <mxGeometry x="70" width="10" height="120" as="geometry" />
        </mxCell>
        <mxCell id="B3IvyqfEGe--kp_O45MT-52" value="RRID个&lt;div&gt;Entries&lt;/div&gt;" style="text;html=1;align=center;verticalAlign=middle;resizable=0;points=[];autosize=1;strokeColor=none;fillColor=none;" vertex="1" parent="B3IvyqfEGe--kp_O45MT-57">
          <mxGeometry y="40" width="60" height="40" as="geometry" />
        </mxCell>
        <mxCell id="B3IvyqfEGe--kp_O45MT-56" value="RRID" style="text;html=1;align=center;verticalAlign=middle;resizable=0;points=[];autosize=1;strokeColor=none;fillColor=none;" vertex="1" parent="B3IvyqfEGe--kp_O45MT-57">
          <mxGeometry x="227.5" y="140" width="50" height="30" as="geometry" />
        </mxCell>
        <mxCell id="B3IvyqfEGe--kp_O45MT-61" style="edgeStyle=orthogonalEdgeStyle;rounded=0;orthogonalLoop=1;jettySize=auto;html=1;entryX=1;entryY=0.5;entryDx=0;entryDy=0;exitX=0.5;exitY=0;exitDx=0;exitDy=0;" edge="1" parent="1" source="B3IvyqfEGe--kp_O45MT-59" target="B3IvyqfEGe--kp_O45MT-4">
          <mxGeometry relative="1" as="geometry" />
        </mxCell>
        <mxCell id="B3IvyqfEGe--kp_O45MT-62" value="出错信息" style="edgeLabel;html=1;align=center;verticalAlign=middle;resizable=0;points=[];labelBackgroundColor=none;" vertex="1" connectable="0" parent="B3IvyqfEGe--kp_O45MT-61">
          <mxGeometry x="0.3025" y="-1" relative="1" as="geometry">
            <mxPoint x="5" y="-9" as="offset" />
          </mxGeometry>
        </mxCell>
        <mxCell id="B3IvyqfEGe--kp_O45MT-59" value="IOPMPChecker" style="rounded=0;whiteSpace=wrap;html=1;fillColor=#f8cecc;strokeColor=#b85450;" vertex="1" parent="1">
          <mxGeometry x="580" y="362.5" width="120" height="60" as="geometry" />
        </mxCell>
        <mxCell id="B3IvyqfEGe--kp_O45MT-60" style="edgeStyle=orthogonalEdgeStyle;rounded=0;orthogonalLoop=1;jettySize=auto;html=1;entryX=0;entryY=0.5;entryDx=0;entryDy=0;" edge="1" parent="1" source="B3IvyqfEGe--kp_O45MT-45" target="B3IvyqfEGe--kp_O45MT-59">
          <mxGeometry relative="1" as="geometry" />
        </mxCell>
        <mxCell id="B3IvyqfEGe--kp_O45MT-65" value="Entries" style="edgeLabel;html=1;align=center;verticalAlign=middle;resizable=0;points=[];labelBackgroundColor=none;" vertex="1" connectable="0" parent="B3IvyqfEGe--kp_O45MT-60">
          <mxGeometry x="-0.0607" y="1" relative="1" as="geometry">
            <mxPoint y="-11" as="offset" />
          </mxGeometry>
        </mxCell>
        <mxCell id="B3IvyqfEGe--kp_O45MT-64" value="Interrupt" style="text;html=1;align=center;verticalAlign=middle;resizable=0;points=[];autosize=1;strokeColor=none;fillColor=none;" vertex="1" parent="1">
          <mxGeometry x="725" y="332.5" width="70" height="30" as="geometry" />
        </mxCell>
        <mxCell id="B3IvyqfEGe--kp_O45MT-66" style="edgeStyle=orthogonalEdgeStyle;rounded=0;orthogonalLoop=1;jettySize=auto;html=1;exitX=0.25;exitY=1;exitDx=0;exitDy=0;entryX=0.764;entryY=0.813;entryDx=0;entryDy=0;entryPerimeter=0;startArrow=classic;startFill=1;endArrow=none;" edge="1" parent="1" source="B3IvyqfEGe--kp_O45MT-59" target="B3IvyqfEGe--kp_O45MT-1">
          <mxGeometry relative="1" as="geometry" />
        </mxCell>
        <mxCell id="B3IvyqfEGe--kp_O45MT-67" value="addr" style="text;html=1;align=center;verticalAlign=middle;resizable=0;points=[];autosize=1;strokeColor=none;fillColor=none;" vertex="1" parent="1">
          <mxGeometry x="580" y="460" width="50" height="30" as="geometry" />
        </mxCell>
        <mxCell id="B3IvyqfEGe--kp_O45MT-70" style="edgeStyle=orthogonalEdgeStyle;rounded=0;orthogonalLoop=1;jettySize=auto;html=1;exitX=0.25;exitY=1;exitDx=0;exitDy=0;entryX=0.764;entryY=0.813;entryDx=0;entryDy=0;entryPerimeter=0;startArrow=classic;startFill=1;endArrow=none;" edge="1" parent="1">
          <mxGeometry relative="1" as="geometry">
            <mxPoint x="639.89" y="422.5" as="sourcePoint" />
            <mxPoint x="639.89" y="459.5" as="targetPoint" />
          </mxGeometry>
        </mxCell>
        <mxCell id="B3IvyqfEGe--kp_O45MT-71" style="edgeStyle=orthogonalEdgeStyle;rounded=0;orthogonalLoop=1;jettySize=auto;html=1;exitX=0.25;exitY=1;exitDx=0;exitDy=0;entryX=0.764;entryY=0.813;entryDx=0;entryDy=0;entryPerimeter=0;startArrow=classic;startFill=1;endArrow=none;" edge="1" parent="1">
          <mxGeometry relative="1" as="geometry">
            <mxPoint x="670" y="422.5" as="sourcePoint" />
            <mxPoint x="670" y="459.5" as="targetPoint" />
          </mxGeometry>
        </mxCell>
        <mxCell id="B3IvyqfEGe--kp_O45MT-72" value="wr" style="text;html=1;align=center;verticalAlign=middle;resizable=0;points=[];autosize=1;strokeColor=none;fillColor=none;" vertex="1" parent="1">
          <mxGeometry x="620" y="460" width="40" height="30" as="geometry" />
        </mxCell>
        <mxCell id="B3IvyqfEGe--kp_O45MT-73" value="size" style="text;html=1;align=center;verticalAlign=middle;resizable=0;points=[];autosize=1;strokeColor=none;fillColor=none;" vertex="1" parent="1">
          <mxGeometry x="655" y="460" width="40" height="30" as="geometry" />
        </mxCell>
        <mxCell id="B3IvyqfEGe--kp_O45MT-77" value="" style="endArrow=none;dashed=1;html=1;rounded=0;entryX=0.5;entryY=1;entryDx=0;entryDy=0;" edge="1" parent="1" source="B3IvyqfEGe--kp_O45MT-83" target="B3IvyqfEGe--kp_O45MT-44">
          <mxGeometry width="50" height="50" relative="1" as="geometry">
            <mxPoint x="430" y="600" as="sourcePoint" />
            <mxPoint x="400" y="450" as="targetPoint" />
          </mxGeometry>
        </mxCell>
        <mxCell id="B3IvyqfEGe--kp_O45MT-94" value="" style="group" vertex="1" connectable="0" parent="1">
          <mxGeometry x="360" y="540" width="326.25" height="150" as="geometry" />
        </mxCell>
        <mxCell id="B3IvyqfEGe--kp_O45MT-80" value="......" style="rounded=0;whiteSpace=wrap;html=1;fillColor=#fff2cc;strokeColor=#d6b656;" vertex="1" parent="B3IvyqfEGe--kp_O45MT-94">
          <mxGeometry x="80" y="120" width="110" height="30" as="geometry" />
        </mxCell>
        <mxCell id="B3IvyqfEGe--kp_O45MT-90" value="" style="group" vertex="1" connectable="0" parent="B3IvyqfEGe--kp_O45MT-94">
          <mxGeometry x="196.25" width="130" height="80" as="geometry" />
        </mxCell>
        <mxCell id="B3IvyqfEGe--kp_O45MT-85" value="addr" style="rounded=0;whiteSpace=wrap;html=1;fillColor=#dae8fc;strokeColor=#6c8ebf;" vertex="1" parent="B3IvyqfEGe--kp_O45MT-90">
          <mxGeometry x="20" width="80" height="20" as="geometry" />
        </mxCell>
        <mxCell id="B3IvyqfEGe--kp_O45MT-86" value="addrh" style="rounded=0;whiteSpace=wrap;html=1;fillColor=#dae8fc;strokeColor=#6c8ebf;" vertex="1" parent="B3IvyqfEGe--kp_O45MT-90">
          <mxGeometry x="20" y="20" width="80" height="20" as="geometry" />
        </mxCell>
        <mxCell id="B3IvyqfEGe--kp_O45MT-87" value="cfg" style="rounded=0;whiteSpace=wrap;html=1;fillColor=#dae8fc;strokeColor=#6c8ebf;" vertex="1" parent="B3IvyqfEGe--kp_O45MT-90">
          <mxGeometry x="20" y="40" width="80" height="20" as="geometry" />
        </mxCell>
        <mxCell id="B3IvyqfEGe--kp_O45MT-88" value="mask" style="rounded=0;whiteSpace=wrap;html=1;fillColor=#dae8fc;strokeColor=#6c8ebf;" vertex="1" parent="B3IvyqfEGe--kp_O45MT-90">
          <mxGeometry x="20" y="60" width="80" height="20" as="geometry" />
        </mxCell>
        <mxCell id="B3IvyqfEGe--kp_O45MT-89" value="" style="shape=curlyBracket;whiteSpace=wrap;html=1;rounded=1;labelPosition=left;verticalLabelPosition=middle;align=right;verticalAlign=middle;size=0.5;" vertex="1" parent="B3IvyqfEGe--kp_O45MT-90">
          <mxGeometry width="10" height="80" as="geometry" />
        </mxCell>
        <mxCell id="B3IvyqfEGe--kp_O45MT-78" value="Entry" style="rounded=0;whiteSpace=wrap;html=1;fillColor=#fff2cc;strokeColor=#d6b656;" vertex="1" parent="B3IvyqfEGe--kp_O45MT-94">
          <mxGeometry x="80" y="30" width="110" height="30" as="geometry" />
        </mxCell>
        <mxCell id="B3IvyqfEGe--kp_O45MT-79" value="Entry" style="rounded=0;whiteSpace=wrap;html=1;fillColor=#fff2cc;strokeColor=#d6b656;" vertex="1" parent="B3IvyqfEGe--kp_O45MT-94">
          <mxGeometry x="80" y="60" width="110" height="30" as="geometry" />
        </mxCell>
        <mxCell id="B3IvyqfEGe--kp_O45MT-82" value="" style="shape=curlyBracket;whiteSpace=wrap;html=1;rounded=1;labelPosition=left;verticalLabelPosition=middle;align=right;verticalAlign=middle;size=0.5;" vertex="1" parent="B3IvyqfEGe--kp_O45MT-94">
          <mxGeometry x="60" y="30" width="10" height="120" as="geometry" />
        </mxCell>
        <mxCell id="B3IvyqfEGe--kp_O45MT-83" value="K个Entry" style="text;html=1;align=center;verticalAlign=middle;resizable=0;points=[];autosize=1;strokeColor=none;fillColor=none;" vertex="1" parent="B3IvyqfEGe--kp_O45MT-94">
          <mxGeometry y="75" width="70" height="30" as="geometry" />
        </mxCell>
        <mxCell id="B3IvyqfEGe--kp_O45MT-81" value="Entry" style="rounded=0;whiteSpace=wrap;html=1;fillColor=#fff2cc;strokeColor=#d6b656;" vertex="1" parent="B3IvyqfEGe--kp_O45MT-94">
          <mxGeometry x="80" y="90" width="110" height="30" as="geometry" />
        </mxCell>
      </root>
    </mxGraphModel>
  </diagram>
</mxfile>
